<mxfile host="65bd71144e">
    <diagram id="14WYc2qa2l7ySAg-PPHz" name="Seite-1">
        <mxGraphModel dx="1074" dy="789" grid="1" gridSize="10" guides="1" tooltips="1" connect="1" arrows="1" fold="1" page="1" pageScale="1" pageWidth="827" pageHeight="1169" math="0" shadow="0">
            <root>
                <mxCell id="0"/>
                <mxCell id="1" parent="0"/>
                <mxCell id="xQ_bn3Geg8H76m8iwFUw-18" style="edgeStyle=orthogonalEdgeStyle;rounded=0;orthogonalLoop=1;jettySize=auto;html=1;exitX=1;exitY=0.5;exitDx=0;exitDy=0;entryX=0;entryY=0.75;entryDx=0;entryDy=0;" parent="1" source="8Nv1xvDnw4MhLFVKTRKU-1" target="8Nv1xvDnw4MhLFVKTRKU-7" edge="1">
                    <mxGeometry relative="1" as="geometry">
                        <Array as="points">
                            <mxPoint x="200" y="260"/>
                            <mxPoint x="200" y="345"/>
                        </Array>
                    </mxGeometry>
                </mxCell>
                <mxCell id="8Nv1xvDnw4MhLFVKTRKU-1" value="Registration" style="rounded=0;whiteSpace=wrap;html=1;" parent="1" vertex="1">
                    <mxGeometry x="40" y="230" width="120" height="60" as="geometry"/>
                </mxCell>
                <mxCell id="8Nv1xvDnw4MhLFVKTRKU-2" value="App Installation&lt;br&gt;(like App on Social Media)" style="rounded=0;whiteSpace=wrap;html=1;" parent="1" vertex="1">
                    <mxGeometry x="40" y="310" width="120" height="60" as="geometry"/>
                </mxCell>
                <mxCell id="8Nv1xvDnw4MhLFVKTRKU-11" style="edgeStyle=orthogonalEdgeStyle;rounded=0;orthogonalLoop=1;jettySize=auto;html=1;entryX=0;entryY=0.5;entryDx=0;entryDy=0;" parent="1" source="8Nv1xvDnw4MhLFVKTRKU-3" target="8Nv1xvDnw4MhLFVKTRKU-10" edge="1">
                    <mxGeometry relative="1" as="geometry">
                        <Array as="points">
                            <mxPoint x="354" y="420"/>
                        </Array>
                    </mxGeometry>
                </mxCell>
                <mxCell id="8Nv1xvDnw4MhLFVKTRKU-3" value="Identy &amp;amp; device &quot;matching&quot;" style="rounded=0;whiteSpace=wrap;html=1;" parent="1" vertex="1">
                    <mxGeometry x="40" y="390" width="120" height="60" as="geometry"/>
                </mxCell>
                <mxCell id="8Nv1xvDnw4MhLFVKTRKU-4" value="End User Perspective" style="text;html=1;strokeColor=none;fillColor=none;align=center;verticalAlign=middle;whiteSpace=wrap;rounded=0;" parent="1" vertex="1">
                    <mxGeometry x="70" y="160" width="60" height="30" as="geometry"/>
                </mxCell>
                <mxCell id="8Nv1xvDnw4MhLFVKTRKU-5" value="Admin&lt;br&gt;Perspective" style="text;html=1;strokeColor=none;fillColor=none;align=center;verticalAlign=middle;whiteSpace=wrap;rounded=0;" parent="1" vertex="1">
                    <mxGeometry x="240" y="160" width="60" height="30" as="geometry"/>
                </mxCell>
                <mxCell id="8Nv1xvDnw4MhLFVKTRKU-6" value="System&lt;br&gt;Perspective" style="text;html=1;strokeColor=none;fillColor=none;align=center;verticalAlign=middle;whiteSpace=wrap;rounded=0;" parent="1" vertex="1">
                    <mxGeometry x="420" y="160" width="60" height="30" as="geometry"/>
                </mxCell>
                <mxCell id="8Nv1xvDnw4MhLFVKTRKU-7" value="Identity verification (e.g. is the &quot;officer&quot; really an officer?)" style="rounded=0;whiteSpace=wrap;html=1;" parent="1" vertex="1">
                    <mxGeometry x="400" y="300" width="120" height="60" as="geometry"/>
                </mxCell>
                <mxCell id="8Nv1xvDnw4MhLFVKTRKU-10" value="Device verification during log-in" style="rounded=0;whiteSpace=wrap;html=1;" parent="1" vertex="1">
                    <mxGeometry x="400" y="390" width="120" height="60" as="geometry"/>
                </mxCell>
                <mxCell id="8Nv1xvDnw4MhLFVKTRKU-12" value="Log-in tracker&lt;br&gt;(&amp;amp; verification)" style="rounded=0;whiteSpace=wrap;html=1;" parent="1" vertex="1">
                    <mxGeometry x="400" y="470" width="120" height="60" as="geometry"/>
                </mxCell>
                <mxCell id="xQ_bn3Geg8H76m8iwFUw-23" style="edgeStyle=orthogonalEdgeStyle;rounded=0;orthogonalLoop=1;jettySize=auto;html=1;exitX=1;exitY=0.75;exitDx=0;exitDy=0;entryX=0;entryY=0.25;entryDx=0;entryDy=0;" parent="1" source="8Nv1xvDnw4MhLFVKTRKU-13" target="8Nv1xvDnw4MhLFVKTRKU-15" edge="1">
                    <mxGeometry relative="1" as="geometry">
                        <Array as="points">
                            <mxPoint x="330" y="600"/>
                            <mxPoint x="330" y="645"/>
                        </Array>
                    </mxGeometry>
                </mxCell>
                <mxCell id="xQ_bn3Geg8H76m8iwFUw-29" style="edgeStyle=orthogonalEdgeStyle;rounded=0;orthogonalLoop=1;jettySize=auto;html=1;exitX=1;exitY=0.5;exitDx=0;exitDy=0;entryX=-0.01;entryY=0.632;entryDx=0;entryDy=0;entryPerimeter=0;" parent="1" source="8Nv1xvDnw4MhLFVKTRKU-13" target="8Nv1xvDnw4MhLFVKTRKU-14" edge="1">
                    <mxGeometry relative="1" as="geometry"/>
                </mxCell>
                <mxCell id="xQ_bn3Geg8H76m8iwFUw-30" style="edgeStyle=orthogonalEdgeStyle;rounded=0;orthogonalLoop=1;jettySize=auto;html=1;exitX=1;exitY=0.25;exitDx=0;exitDy=0;entryX=0;entryY=0.5;entryDx=0;entryDy=0;" parent="1" source="8Nv1xvDnw4MhLFVKTRKU-13" target="8Nv1xvDnw4MhLFVKTRKU-12" edge="1">
                    <mxGeometry relative="1" as="geometry"/>
                </mxCell>
                <mxCell id="8Nv1xvDnw4MhLFVKTRKU-13" value="Location tracking switch (officer &amp;amp; civilian)" style="rounded=0;whiteSpace=wrap;html=1;" parent="1" vertex="1">
                    <mxGeometry x="40" y="555" width="120" height="60" as="geometry"/>
                </mxCell>
                <mxCell id="8Nv1xvDnw4MhLFVKTRKU-14" value="Auto-disable tracking for officers" style="rounded=0;whiteSpace=wrap;html=1;" parent="1" vertex="1">
                    <mxGeometry x="400" y="550" width="120" height="60" as="geometry"/>
                </mxCell>
                <mxCell id="8Nv1xvDnw4MhLFVKTRKU-15" value="Location Tracking" style="rounded=0;whiteSpace=wrap;html=1;" parent="1" vertex="1">
                    <mxGeometry x="400" y="630" width="120" height="60" as="geometry"/>
                </mxCell>
                <mxCell id="8Nv1xvDnw4MhLFVKTRKU-16" value="Matchmaking" style="rounded=0;whiteSpace=wrap;html=1;" parent="1" vertex="1">
                    <mxGeometry x="400" y="730" width="120" height="60" as="geometry"/>
                </mxCell>
                <mxCell id="xQ_bn3Geg8H76m8iwFUw-21" style="edgeStyle=orthogonalEdgeStyle;rounded=0;orthogonalLoop=1;jettySize=auto;html=1;" parent="1" edge="1">
                    <mxGeometry relative="1" as="geometry">
                        <mxPoint x="160" y="670" as="sourcePoint"/>
                        <mxPoint x="400" y="740" as="targetPoint"/>
                        <Array as="points">
                            <mxPoint x="280" y="670"/>
                            <mxPoint x="280" y="740"/>
                            <mxPoint x="400" y="740"/>
                        </Array>
                    </mxGeometry>
                </mxCell>
                <mxCell id="xQ_bn3Geg8H76m8iwFUw-22" style="edgeStyle=orthogonalEdgeStyle;rounded=0;orthogonalLoop=1;jettySize=auto;html=1;exitX=1;exitY=0.25;exitDx=0;exitDy=0;entryX=0;entryY=0.5;entryDx=0;entryDy=0;" parent="1" source="8Nv1xvDnw4MhLFVKTRKU-17" target="8Nv1xvDnw4MhLFVKTRKU-15" edge="1">
                    <mxGeometry relative="1" as="geometry">
                        <mxPoint x="390" y="670" as="targetPoint"/>
                        <Array as="points">
                            <mxPoint x="275" y="645"/>
                            <mxPoint x="275" y="660"/>
                        </Array>
                    </mxGeometry>
                </mxCell>
                <mxCell id="8Nv1xvDnw4MhLFVKTRKU-17" value="Initial Hello!&lt;br&gt;- e.g. civilian connects&lt;br&gt;- appointment" style="rounded=0;whiteSpace=wrap;html=1;" parent="1" vertex="1">
                    <mxGeometry x="40" y="630" width="120" height="60" as="geometry"/>
                </mxCell>
                <mxCell id="xQ_bn3Geg8H76m8iwFUw-24" style="edgeStyle=orthogonalEdgeStyle;rounded=0;orthogonalLoop=1;jettySize=auto;html=1;exitX=1;exitY=0.75;exitDx=0;exitDy=0;entryX=0;entryY=0.75;entryDx=0;entryDy=0;" parent="1" source="8Nv1xvDnw4MhLFVKTRKU-18" target="8Nv1xvDnw4MhLFVKTRKU-16" edge="1">
                    <mxGeometry relative="1" as="geometry"/>
                </mxCell>
                <mxCell id="xQ_bn3Geg8H76m8iwFUw-25" style="edgeStyle=orthogonalEdgeStyle;rounded=0;orthogonalLoop=1;jettySize=auto;html=1;exitX=1;exitY=0.5;exitDx=0;exitDy=0;entryX=0;entryY=0.75;entryDx=0;entryDy=0;" parent="1" source="8Nv1xvDnw4MhLFVKTRKU-18" target="8Nv1xvDnw4MhLFVKTRKU-15" edge="1">
                    <mxGeometry relative="1" as="geometry">
                        <Array as="points">
                            <mxPoint x="160" y="750"/>
                            <mxPoint x="310" y="750"/>
                            <mxPoint x="310" y="675"/>
                        </Array>
                    </mxGeometry>
                </mxCell>
                <mxCell id="xQ_bn3Geg8H76m8iwFUw-26" style="edgeStyle=orthogonalEdgeStyle;rounded=0;orthogonalLoop=1;jettySize=auto;html=1;exitX=0.5;exitY=1;exitDx=0;exitDy=0;entryX=0.5;entryY=0;entryDx=0;entryDy=0;" parent="1" source="8Nv1xvDnw4MhLFVKTRKU-18" target="xQ_bn3Geg8H76m8iwFUw-1" edge="1">
                    <mxGeometry relative="1" as="geometry"/>
                </mxCell>
                <mxCell id="xQ_bn3Geg8H76m8iwFUw-31" style="edgeStyle=orthogonalEdgeStyle;rounded=0;orthogonalLoop=1;jettySize=auto;html=1;exitX=1;exitY=0.25;exitDx=0;exitDy=0;entryX=0;entryY=0.75;entryDx=0;entryDy=0;" parent="1" source="8Nv1xvDnw4MhLFVKTRKU-18" target="8Nv1xvDnw4MhLFVKTRKU-12" edge="1">
                    <mxGeometry relative="1" as="geometry">
                        <Array as="points">
                            <mxPoint x="340" y="725"/>
                            <mxPoint x="340" y="515"/>
                        </Array>
                    </mxGeometry>
                </mxCell>
                <mxCell id="8Nv1xvDnw4MhLFVKTRKU-18" value="Handshaking&lt;br&gt;- Maps&lt;br&gt;- Distance &amp;lt;= 3m&lt;br&gt;- 2 sided confirmation" style="rounded=0;whiteSpace=wrap;html=1;" parent="1" vertex="1">
                    <mxGeometry x="40" y="710" width="120" height="60" as="geometry"/>
                </mxCell>
                <mxCell id="xQ_bn3Geg8H76m8iwFUw-27" style="edgeStyle=orthogonalEdgeStyle;rounded=0;orthogonalLoop=1;jettySize=auto;html=1;exitX=0.5;exitY=1;exitDx=0;exitDy=0;entryX=0.5;entryY=0;entryDx=0;entryDy=0;" parent="1" source="xQ_bn3Geg8H76m8iwFUw-1" target="xQ_bn3Geg8H76m8iwFUw-2" edge="1">
                    <mxGeometry relative="1" as="geometry"/>
                </mxCell>
                <mxCell id="xQ_bn3Geg8H76m8iwFUw-28" style="edgeStyle=orthogonalEdgeStyle;rounded=0;orthogonalLoop=1;jettySize=auto;html=1;exitX=0;exitY=0.5;exitDx=0;exitDy=0;entryX=0;entryY=0.5;entryDx=0;entryDy=0;" parent="1" source="xQ_bn3Geg8H76m8iwFUw-1" target="xQ_bn3Geg8H76m8iwFUw-3" edge="1">
                    <mxGeometry relative="1" as="geometry"/>
                </mxCell>
                <mxCell id="xQ_bn3Geg8H76m8iwFUw-1" value="receive points for &quot;connection&quot;" style="rounded=0;whiteSpace=wrap;html=1;" parent="1" vertex="1">
                    <mxGeometry x="40" y="790" width="120" height="60" as="geometry"/>
                </mxCell>
                <mxCell id="xQ_bn3Geg8H76m8iwFUw-2" value="Post to Social Media" style="rounded=0;whiteSpace=wrap;html=1;" parent="1" vertex="1">
                    <mxGeometry x="40" y="870" width="120" height="60" as="geometry"/>
                </mxCell>
                <mxCell id="xQ_bn3Geg8H76m8iwFUw-9" style="edgeStyle=orthogonalEdgeStyle;rounded=0;orthogonalLoop=1;jettySize=auto;html=1;exitX=1;exitY=0.25;exitDx=0;exitDy=0;entryX=0;entryY=0.25;entryDx=0;entryDy=0;" parent="1" source="xQ_bn3Geg8H76m8iwFUw-3" target="xQ_bn3Geg8H76m8iwFUw-5" edge="1">
                    <mxGeometry relative="1" as="geometry"/>
                </mxCell>
                <mxCell id="xQ_bn3Geg8H76m8iwFUw-10" style="edgeStyle=orthogonalEdgeStyle;rounded=0;orthogonalLoop=1;jettySize=auto;html=1;exitX=1;exitY=0.75;exitDx=0;exitDy=0;entryX=0;entryY=0.5;entryDx=0;entryDy=0;" parent="1" source="xQ_bn3Geg8H76m8iwFUw-3" target="xQ_bn3Geg8H76m8iwFUw-7" edge="1">
                    <mxGeometry relative="1" as="geometry"/>
                </mxCell>
                <mxCell id="xQ_bn3Geg8H76m8iwFUw-3" value="Buy or Donate points" style="rounded=0;whiteSpace=wrap;html=1;" parent="1" vertex="1">
                    <mxGeometry x="40" y="950" width="120" height="60" as="geometry"/>
                </mxCell>
                <mxCell id="xQ_bn3Geg8H76m8iwFUw-4" value="Usage &amp;amp; Analytics" style="rounded=0;whiteSpace=wrap;html=1;" parent="1" vertex="1">
                    <mxGeometry x="250" y="230" width="120" height="60" as="geometry"/>
                </mxCell>
                <mxCell id="xQ_bn3Geg8H76m8iwFUw-16" style="edgeStyle=orthogonalEdgeStyle;rounded=0;orthogonalLoop=1;jettySize=auto;html=1;exitX=1;exitY=0.5;exitDx=0;exitDy=0;entryX=0;entryY=0.25;entryDx=0;entryDy=0;" parent="1" source="xQ_bn3Geg8H76m8iwFUw-5" target="xQ_bn3Geg8H76m8iwFUw-11" edge="1">
                    <mxGeometry relative="1" as="geometry">
                        <Array as="points">
                            <mxPoint x="540" y="980"/>
                            <mxPoint x="540" y="885"/>
                        </Array>
                    </mxGeometry>
                </mxCell>
                <mxCell id="xQ_bn3Geg8H76m8iwFUw-5" value="Charity Flow" style="rounded=0;whiteSpace=wrap;html=1;" parent="1" vertex="1">
                    <mxGeometry x="400" y="950" width="120" height="60" as="geometry"/>
                </mxCell>
                <mxCell id="xQ_bn3Geg8H76m8iwFUw-15" style="edgeStyle=orthogonalEdgeStyle;rounded=0;orthogonalLoop=1;jettySize=auto;html=1;exitX=1;exitY=0.25;exitDx=0;exitDy=0;entryX=0;entryY=0.75;entryDx=0;entryDy=0;" parent="1" source="xQ_bn3Geg8H76m8iwFUw-7" target="xQ_bn3Geg8H76m8iwFUw-11" edge="1">
                    <mxGeometry relative="1" as="geometry">
                        <Array as="points">
                            <mxPoint x="560" y="1035"/>
                            <mxPoint x="560" y="915"/>
                        </Array>
                    </mxGeometry>
                </mxCell>
                <mxCell id="xQ_bn3Geg8H76m8iwFUw-7" value="Buy/Purchase Flow" style="rounded=0;whiteSpace=wrap;html=1;" parent="1" vertex="1">
                    <mxGeometry x="400" y="1020" width="120" height="60" as="geometry"/>
                </mxCell>
                <mxCell id="xQ_bn3Geg8H76m8iwFUw-17" style="edgeStyle=orthogonalEdgeStyle;rounded=0;orthogonalLoop=1;jettySize=auto;html=1;exitX=0.75;exitY=1;exitDx=0;exitDy=0;entryX=0.75;entryY=0;entryDx=0;entryDy=0;" parent="1" source="xQ_bn3Geg8H76m8iwFUw-11" target="xQ_bn3Geg8H76m8iwFUw-13" edge="1">
                    <mxGeometry relative="1" as="geometry"/>
                </mxCell>
                <mxCell id="xQ_bn3Geg8H76m8iwFUw-11" value="Storefront&lt;br&gt;(Marketplace)" style="rounded=0;whiteSpace=wrap;html=1;" parent="1" vertex="1">
                    <mxGeometry x="580" y="870" width="120" height="60" as="geometry"/>
                </mxCell>
                <mxCell id="xQ_bn3Geg8H76m8iwFUw-12" value="Shop/Charity&lt;br&gt;perspective" style="text;html=1;strokeColor=none;fillColor=none;align=center;verticalAlign=middle;whiteSpace=wrap;rounded=0;" parent="1" vertex="1">
                    <mxGeometry x="610" y="160" width="60" height="30" as="geometry"/>
                </mxCell>
                <mxCell id="xQ_bn3Geg8H76m8iwFUw-13" value="Logistics" style="rounded=0;whiteSpace=wrap;html=1;" parent="1" vertex="1">
                    <mxGeometry x="580" y="1020" width="120" height="60" as="geometry"/>
                </mxCell>
                <mxCell id="xQ_bn3Geg8H76m8iwFUw-32" value="&lt;font style=&quot;font-size: 8px;&quot;&gt;optional&lt;/font&gt;" style="text;html=1;strokeColor=none;fillColor=none;align=center;verticalAlign=middle;whiteSpace=wrap;rounded=0;" parent="1" vertex="1">
                    <mxGeometry x="100" y="850" width="50" height="20" as="geometry"/>
                </mxCell>
            </root>
        </mxGraphModel>
    </diagram>
</mxfile>